<svg xmlns="http://www.w3.org/2000/svg" viewBox="0 0 48 36">
    <style type="text/css">
        path { fill: none; stroke: #bebebe; stroke-width:4; }
    </style>
    <path d="
        M2 1.5m0 10 c0 -6,4 -10,10 -10 h22 c6 0,10 4,10 10 v13 c0 6,-4 10,-10 10 h-22 c-6 0,-10 -4,-10 -10 v-13
        M8 13 h28 m-28 9 h16
"/>
<!--<path d=" M7.55,11.8l0.3-0.08h3.95c1.4,0,2.5-1.1,2.5-2.5V4.5c0-1.4-1.1-2.5-2.5-2.5H4 C2.6,2,1.5,3.1,1.5,4.5v9.5c0,0.2,0.1,0.35,0.3,0.45C1.85,14.5,1.95,14.5,2,14.5c0.1,0,0.25-0.05,0.35-0.1c1.5-1.3,3.3-2.15,5.2-2.6z M4.5,4.5h7c0.6,0,1,0.4,1,1s-0.4,1-1,1h-7c-0.6,0-1-0.4-1-1s0.4-1,1-1z M4.5,8h3c0.6,0,1,0.4,1,1s-0.4,1-1,1h-3c-0.6,0-1-0.4-1-1s0.4-1,1-1z "/>-->
</svg>
